<?xml version="1.0" encoding="utf-8"?>
<!-- Generator: Adobe Illustrator 13.0.0, SVG Export Plug-In . SVG Version: 6.00 Build 14948)  -->
<!DOCTYPE svg PUBLIC "-//W3C//DTD SVG 1.1//EN" "http://www.w3.org/Graphics/SVG/1.1/DTD/svg11.dtd">
<svg version="1.1" id="Layer_1" xmlns="http://www.w3.org/2000/svg" xmlns:xlink="http://www.w3.org/1999/xlink" x="0px" y="0px"
	 width="674.83px" height="441px" viewBox="-67 -101.5 674.83 441" enable-background="new -67 -101.5 674.83 441"
	 xml:space="preserve">
<line fill="none" stroke="#00FF00" x1="83.415" y1="-101" x2="157.415" y2="9"/>
<line fill="none" stroke="#0000FF" x1="-66.585" y1="-101" x2="83.415" y2="-101"/>
<line fill="none" stroke="#0000FF" x1="7.415" y1="9" x2="-66.585" y2="-101"/>
<line fill="none" stroke="#FF0000" x1="157.415" y1="9" x2="7.415" y2="9"/>
<line fill="none" stroke="#00FF00" x1="83.415" y1="119" x2="157.415" y2="9"/>
<line fill="none" stroke="#00FF00" x1="-66.585" y1="119" x2="83.415" y2="119"/>
<line fill="none" stroke="#0000FF" x1="7.415" y1="9" x2="-66.585" y2="119"/>
<line fill="none" stroke="#FF0000" x1="233.415" y1="-101" x2="307.415" y2="9"/>
<line fill="none" stroke="#0000FF" x1="83.415" y1="-101" x2="233.415" y2="-101"/>
<line fill="none" stroke="#00FF00" x1="307.415" y1="9" x2="157.415" y2="9"/>
<line fill="none" stroke="#FF0000" x1="233.415" y1="119" x2="307.415" y2="9"/>
<line fill="none" stroke="#FF0000" x1="83.415" y1="119" x2="233.415" y2="119"/>
<line fill="none" stroke="#00FF00" x1="83.415" y1="119" x2="157.415" y2="229"/>
<line fill="none" stroke="#0000FF" x1="7.415" y1="229" x2="-66.585" y2="119"/>
<line fill="none" stroke="#FF0000" x1="233.415" y1="119" x2="307.415" y2="229"/>
<line fill="none" stroke="#0000FF" x1="233.415" y1="-101" x2="383.415" y2="-101"/>
<line fill="none" stroke="#FF0000" x1="457.415" y1="9" x2="307.415" y2="9"/>
<line fill="none" stroke="#00FF00" x1="233.415" y1="119" x2="383.415" y2="119"/>
<line fill="none" stroke="#FF0000" x1="157.415" y1="229" x2="7.415" y2="229"/>
<line fill="none" stroke="#00FF00" x1="83.415" y1="339" x2="157.415" y2="229"/>
<line fill="none" stroke="#0000FF" x1="-66.585" y1="339" x2="83.415" y2="339"/>
<line fill="none" stroke="#0000FF" x1="7.415" y1="229" x2="-66.585" y2="339"/>
<line fill="none" stroke="#00FF00" x1="307.415" y1="229" x2="157.415" y2="229"/>
<line fill="none" stroke="#FF0000" x1="233.415" y1="339" x2="307.415" y2="229"/>
<line fill="none" stroke="#0000FF" x1="83.415" y1="339" x2="233.415" y2="339"/>
<line fill="none" stroke="#FF0000" x1="457.415" y1="229" x2="307.415" y2="229"/>
<line fill="none" stroke="#0000FF" x1="233.415" y1="339" x2="383.415" y2="339"/>
<line fill="none" stroke="#00FF00" x1="383.415" y1="-101" x2="457.415" y2="9"/>
<line fill="none" stroke="#00FF00" x1="383.415" y1="119" x2="457.415" y2="9"/>
<line fill="none" stroke="#0000FF" x1="533.415" y1="-101" x2="607.415" y2="9"/>
<line fill="none" stroke="#0000FF" x1="383.415" y1="-101" x2="533.415" y2="-101"/>
<line fill="none" stroke="#00FF00" x1="607.415" y1="9" x2="457.415" y2="9"/>
<line fill="none" stroke="#0000FF" x1="533.415" y1="119" x2="607.415" y2="9"/>
<line fill="none" stroke="#FF0000" x1="383.415" y1="119" x2="533.415" y2="119"/>
<line fill="none" stroke="#00FF00" x1="383.415" y1="119" x2="457.415" y2="229"/>
<line fill="none" stroke="#0000FF" x1="533.415" y1="119" x2="607.415" y2="229"/>
<line fill="none" stroke="#00FF00" x1="383.415" y1="339" x2="457.415" y2="229"/>
<line fill="none" stroke="#00FF00" x1="607.415" y1="229" x2="457.415" y2="229"/>
<line fill="none" stroke="#0000FF" x1="533.415" y1="339" x2="607.415" y2="229"/>
<line fill="none" stroke="#0000FF" x1="383.415" y1="339" x2="533.415" y2="339"/>
</svg>
